<svg xmlns="http://www.w3.org/2000/svg" width="36" height="36" viewBox="0 0 36 36">
    <defs>
        <style>
            .cls-1{fill:#fff;stroke:#d8e1e8}.cls-2{fill:rgba(229,192,163,0)}.cls-3{fill:#3c3c3c}.cls-4{stroke:none}.cls-5{fill:none}
        </style>
    </defs>
    <g id="aboutus-icn" transform="translate(-30 -468)">
        <g id="Ellipse_50" class="cls-1" data-name="Ellipse 50" transform="translate(30 468)">
            <circle cx="18" cy="18" r="18" class="cls-4"/>
            <circle cx="18" cy="18" r="17.5" class="cls-5"/>
        </g>
        <g id="aboutus-icn-2" data-name="aboutus-icn" transform="translate(38 475)">
            <path id="Rectangle_6_copy_10" d="M0 0h20v20H0z" class="cls-2" data-name="Rectangle 6 copy 10"/>
            <path id="Forma_1" d="M3.593 13.9l-2.8.765a.624.624 0 0 1-.73-.869 5.61 5.61 0 0 0 .285-4.048 7.841 7.841 0 0 1-.237-.972A7.5 7.5 0 0 1 6.218.1a.612.612 0 0 1 .098 0 7.5 7.5 0 0 1 7.427 11.558 7.448 7.448 0 0 1-4.764 3.2A7.528 7.528 0 0 1 7.484 15a7.427 7.427 0 0 1-3.891-1.1zm.448-1.2a6.249 6.249 0 0 0 6.918-10.4 6.216 6.216 0 0 0-4.521-.954.762.762 0 0 1-.09.009 6.248 6.248 0 0 0-5 7.21 6.323 6.323 0 0 0 .2.815 6.883 6.883 0 0 1 .082 3.767l1.906-.521a.648.648 0 0 1 .165-.023.629.629 0 0 1 .34.097zm3.221-1.5a.749.749 0 0 1-.206-.131.736.736 0 0 1-.131-.206.595.595 0 0 1 0-.475.591.591 0 0 1 .131-.206.626.626 0 0 1 .562-.169.375.375 0 0 1 .119.038.366.366 0 0 1 .106.057.516.516 0 0 1 .1.075.579.579 0 0 1 .131.206.585.585 0 0 1 0 .475.716.716 0 0 1-.131.206.749.749 0 0 1-.206.131.63.63 0 0 1-.237.049.638.638 0 0 1-.238-.05zm-.384-3.138v-3.75a.625.625 0 0 1 1.25 0v3.75a.625.625 0 0 1-1.25 0z" class="cls-3" data-name="Forma 1" transform="translate(2.772 2.769)"/>
        </g>
    </g>
</svg>
