<svg xmlns="http://www.w3.org/2000/svg" viewBox="0 0 40 40"><path d="M25.8 5.9c-4.5 0-8.2 3.7-8.2 8.2 0 1.5.4 3 1.2 4.2L6.3 30.9c-.4.4-.4 1 0 1.4.2.2.4.3.7.3.2 0 .5-.1.7-.3l1.7-1.7 3.2 3.2c.2.2.4.3.7.3s.5-.1.7-.3c.4-.4.4-1 0-1.4l-3.2-3.2 1-1.1 2.2 2.2c.2.2.4.3.7.3s.5-.1.7-.3c.4-.4.4-1 0-1.4l-2.2-2.2 1-1.1 3.2 3.2c.2.2.4.3.7.3.2 0 .5-.1.7-.3.4-.4.4-1 0-1.4l-3.2-3.2L20 20c1.5 1.5 3.6 2.5 5.8 2.5 4.5 0 8.2-3.7 8.2-8.2 0-4.7-3.7-8.4-8.2-8.4zm0 14.6c-3.5 0-6.3-2.8-6.3-6.3s2.8-6.3 6.3-6.3 6.3 2.8 6.3 6.3-2.8 6.3-6.3 6.3z" fill="#5e5e5e"/></svg>