<svg xmlns="http://www.w3.org/2000/svg" width="14.499" height="14.496" viewBox="0 0 14.499 14.496">
    <g data-name="Group 152440">
        <path data-name="call copy" d="M77.715 1027.586a11.671 11.671 0 0 0 4.95 4.948l1.65-1.65a.6.6 0 0 1 .75-.15 7.84 7.84 0 0 0 2.7.45.708.708 0 0 1 .75.75v2.549a.709.709 0 0 1-.75.75 12.737 12.737 0 0 1-12.749-12.746.708.708 0 0 1 .75-.75h2.624a.708.708 0 0 1 .75.75 8.489 8.489 0 0 0 .45 2.7.923.923 0 0 1-.15.75z" transform="translate(-74.515 -1021.238)" style="fill:#111;stroke:#111"/>
    </g>
</svg>
