<svg xmlns="http://www.w3.org/2000/svg" width="36" height="36" viewBox="0 0 36 36">
  <g id="Covid" transform="translate(-20 -1122)">
    <g id="Corona">
      <g id="Group_6750" data-name="Group 6750" transform="translate(20 1122)">
        <g id="Ellipse_50" data-name="Ellipse 50" fill="#fff" stroke="#d8e1e8" stroke-width="1">
          <circle cx="18" cy="18" r="18" stroke="none"/>
          <circle cx="18" cy="18" r="17.5" fill="none"/>
        </g>
      </g>
      <g id="help-support-icn" transform="translate(28 1130)">
        <rect id="Rectangle_6_copy_6" data-name="Rectangle 6 copy 6" width="20" height="20" fill="rgba(229,192,163,0)"/>
      </g>
    </g>
    <g id="Group_8793" data-name="Group 8793" transform="translate(-170 471.994)">
      <g id="Group_8792" data-name="Group 8792" transform="translate(199.2 659.206)">
        <path id="Path_5444" data-name="Path 5444" d="M214.5,665.706a1.1,1.1,0,0,0-1.064.825h-1.418a5.2,5.2,0,0,0-1.336-3.218l1-1a1.1,1.1,0,1,0-.389-.389l-1,1a5.2,5.2,0,0,0-3.218-1.336V660.17a1.1,1.1,0,1,0-.55,0v1.418a5.2,5.2,0,0,0-3.218,1.336l-1-1a1.1,1.1,0,1,0-.389.389l1,1a5.2,5.2,0,0,0-1.336,3.218h-1.418a1.1,1.1,0,1,0,0,.55h1.418a5.2,5.2,0,0,0,1.336,3.218l-1,1a1.1,1.1,0,1,0,.389.389l1-1a5.2,5.2,0,0,0,3.218,1.336v1.418a1.1,1.1,0,1,0,.55,0v-1.418a5.2,5.2,0,0,0,3.218-1.336l1,1a1.1,1.1,0,1,0,.389-.389l-1-1a5.2,5.2,0,0,0,1.336-3.218h1.418a1.1,1.1,0,1,0,1.064-1.375Zm-2.644-4.734a.55.55,0,1,1-.161.389A.548.548,0,0,1,211.856,660.972Zm-5.606-1.866a.55.55,0,1,1,.55.55A.551.551,0,0,1,206.25,659.106Zm-5.284,2.644a.55.55,0,1,1,.389.161A.551.551,0,0,1,200.966,661.75Zm-1.866,5.606a.55.55,0,1,1,.55-.55A.551.551,0,0,1,199.1,667.356Zm2.644,5.284a.55.55,0,1,1,.161-.389A.551.551,0,0,1,201.744,672.639Zm5.606,1.866a.55.55,0,1,1-.55-.55A.551.551,0,0,1,207.35,674.506Zm5.284-2.644a.55.55,0,1,1-.389-.161A.551.551,0,0,1,212.633,671.861Zm-5.834-.381a4.675,4.675,0,1,1,4.675-4.675A4.68,4.68,0,0,1,206.8,671.481Zm7.7-4.125a.55.55,0,1,1,.55-.55A.551.551,0,0,1,214.5,667.356Z" transform="translate(-198 -658.006)" fill="#3c3c3c" stroke="#3c3c3c" stroke-width="0.5"/>
        <path id="Path_5445" data-name="Path 5445" d="M287.393,789.586a1.1,1.1,0,1,0,1.556,0A1.1,1.1,0,0,0,287.393,789.586Zm1.167,1.167a.55.55,0,1,1,0-.778A.551.551,0,0,1,288.56,790.753Z" transform="translate(-281.846 -781.564)" fill="#3c3c3c" stroke="#3c3c3c" stroke-width="0.5"/>
        <path id="Path_5446" data-name="Path 5446" d="M329.58,747.4a1.1,1.1,0,1,0,1.556,0A1.1,1.1,0,0,0,329.58,747.4Zm1.167,1.167a.55.55,0,1,1,0-.778A.551.551,0,0,1,330.747,748.566Z" transform="translate(-321.558 -741.852)" fill="#3c3c3c" stroke="#3c3c3c" stroke-width="0.5"/>
        <path id="Path_5447" data-name="Path 5447" d="M371.768,789.586a1.1,1.1,0,1,0,1.556,0A1.1,1.1,0,0,0,371.768,789.586Zm1.167,1.167a.55.55,0,1,1,0-.778A.551.551,0,0,1,372.935,790.753Z" transform="translate(-361.271 -781.564)" fill="#3c3c3c" stroke="#3c3c3c" stroke-width="0.5"/>
        <path id="Path_5448" data-name="Path 5448" d="M329.58,831.774a1.1,1.1,0,1,0,1.556,0A1.1,1.1,0,0,0,329.58,831.774Zm1.167,1.167a.55.55,0,1,1,0-.778A.551.551,0,0,1,330.747,832.941Z" transform="translate(-321.558 -821.277)" fill="#3c3c3c" stroke="#3c3c3c" stroke-width="0.5"/>
      </g>
    </g>
  </g>
</svg>
