<svg xmlns="http://www.w3.org/2000/svg" width="36" height="36" viewBox="0 0 36 36">
    <g style="opacity:.98">
        <g data-name="Ellipse 50" style="fill:#fff;stroke:#d8e1e8">
            <circle cx="18" cy="18" r="18" style="stroke:none"/>
            <circle cx="18" cy="18" r="17.5" style="fill:none"/>
        </g>
        <g data-name="help&amp;support-icn">
            <path data-name="Rectangle 6 copy 6" d="M0 0h20v20H0z" style="fill:transparent" transform="translate(8 8)"/>
            <path data-name="Path 5337" d="m456.681-1819.879-6.341-6.34a4.53 4.53 0 0 1-1.34-3.222 4.511 4.511 0 0 1 1.334-3.226 4.522 4.522 0 0 1 3.218-1.334 4.535 4.535 0 0 1 3.228 1.341l.337.336.329-.329a4.532 4.532 0 0 1 3.226-1.337 4.529 4.529 0 0 1 3.222 1.333 4.512 4.512 0 0 1 1.33 3.226 4.533 4.533 0 0 1-1.337 3.225l-6.353 6.33a.607.607 0 0 1-.427.175.605.605 0 0 1-.426-.178zm-5.49-11.927a3.31 3.31 0 0 0-.979 2.365 3.328 3.328 0 0 0 .982 2.368l5.914 5.914 5.927-5.9a3.314 3.314 0 0 0 .979-2.368 3.33 3.33 0 0 0-.979-2.37 3.334 3.334 0 0 0-2.365-.978 3.329 3.329 0 0 0-2.369.982l-.756.756a.6.6 0 0 1-.428.178.6.6 0 0 1-.428-.178l-.763-.762a3.331 3.331 0 0 0-2.371-.983 3.319 3.319 0 0 0-2.364.976z" transform="translate(-439.15 1844.85)" style="fill:#3f3f3f"/>
        </g>
    </g>
</svg>
