<svg xmlns="http://www.w3.org/2000/svg" width="32" height="32" viewBox="0 0 32 32"><title>jd_talkaboutus</title><path fill="#a3a3a3" d="M23.6 20.667c1.92-1.6 5.333-7.52-2.48-10.48 2.56 1.12 3.333 6.027 1.067 8.96-1.68 2.187-9.707 3.36-9.707 3.36s8.347.48 11.12-1.84z"/><path fill="#a3a3a3" d="M6.453 22.88c-.08-.107-.133-.24-.133-.373s.027-.24.107-.347a23.9 23.9 0 0 0 1.333-2.053c.213-.347.373-.64.587-.933a6.9 6.9 0 0 1-1.813-1.813 5.071 5.071 0 0 1-.853-2.8c0-1.146.374-2.212 1.12-3.2.72-.932 1.734-1.68 2.988-2.24 1.227-.532 2.587-.8 4.027-.8s2.8.268 4.027.8c1.253.534 2.24 1.28 2.987 2.24s1.12 2.054 1.12 3.2c0 1.148-.374 2.214-1.12 3.2-.72.934-1.734 1.68-2.988 2.24-1.227.534-2.587.8-4 .8-.56 0-1.12-.052-1.707-.132-.56.453-2.187 1.547-4.987 2.453-.053.028-.133.028-.187.028-.212-.027-.4-.107-.506-.267z"/><path fill="#fff" d="M17.6 19.413c1.147-.507 2.08-1.173 2.747-2.053.667-.853 1.013-1.787 1.013-2.827 0-1.013-.347-1.947-1.013-2.827-.667-.853-1.573-1.547-2.747-2.053-1.147-.507-2.4-.747-3.76-.747s-2.613.24-3.76.747c-1.147.507-2.08 1.173-2.747 2.053-.667.853-1.013 1.787-1.013 2.827 0 .88.24 1.68.747 2.453s1.2 1.413 2.08 1.947c-.08.187-.133.347-.213.48-.56.8-.827 1.44-2 3.093C10.4 21.386 11.947 20 11.947 20c.64.106 1.253.186 1.867.186 1.387-.027 2.64-.267 3.787-.773z"/></svg>