<svg xmlns="http://www.w3.org/2000/svg" width="36" height="36">
    <g data-name="Ellipse 239" style="fill:#fff;stroke:#d8e1e8">
        <circle cx="18" cy="18" r="18" style="stroke:none"/>
        <circle cx="18" cy="18" r="17.5" style="fill:none"/>
    </g>
    <path data-name="Rectangle 6 copy 5" transform="translate(8 8)" style="fill:transparent" d="M0 0h20v20H0z"/>
    <path data-name="Path 67593" d="M11821.192 10002.115h-5.063a2.508 2.508 0 0 1-4.9 0h-1a1.236 1.236 0 0 1-1.231-1.231v-8.652a1.235 1.235 0 0 1 1.231-1.232h9.884a1.233 1.233 0 0 1 1.232 1.232v.878h2.687a.874.874 0 0 1 .857.687l.668 2.938h.211a1.233 1.233 0 0 1 1.231 1.229v2.921a1.236 1.236 0 0 1-.9 1.187 2.5 2.5 0 0 1-4.906.045zm1.1-1.057a1.45 1.45 0 1 0 1.351-.923 1.452 1.452 0 0 0-1.353.924zm-9.964 0a1.451 1.451 0 1 0 2.8.528 1.425 1.425 0 0 0-1.466-1.446 1.4 1.4 0 0 0-1.336.919zm3.8 0h4.161v-8.827a.174.174 0 0 0-.176-.176h-2.151v2.687a.528.528 0 0 1-.725.49l-2.065-.831-2.066.831a.529.529 0 0 1-.724-.49v-2.687h-2.152a.174.174 0 0 0-.175.176v8.652a.173.173 0 0 0 .175.175h1a2.507 2.507 0 0 1 4.9 0zm9.815-.457v-2.639a.175.175 0 0 0-.175-.175h-4.423v2.793a2.5 2.5 0 0 1 4.6.021zm-4.6-3.867h3.128l-.581-2.568h-2.547zm-5.979-3.39 1.541.617v-1.906h-3.473v1.906l1.54-.617a.522.522 0 0 1 .392 0zm1.885 6.438a.527.527 0 1 1 0-1.054h1.435a.527.527 0 1 1 0 1.054zm-.7-2.4a.527.527 0 1 1 0-1.054h2.135a.527.527 0 1 1 0 1.054z" transform="translate(-11799.999 -9979)" style="fill:#3c3c3c"/>
</svg>
