<svg xmlns="http://www.w3.org/2000/svg" width="34" height="34" viewBox="0 0 34 34">
    <g data-name="Group 183012">
        <g data-name="Ellipse 13855" style="stroke:#d9e1e7;fill:none">
            <circle cx="17" cy="17" r="17" style="stroke:none"/>
            <circle cx="17" cy="17" r="16.5" style="fill:none"/>
        </g>
        <g data-name="briefcase (4)">
            <g data-name="Group 183002">
                <g data-name="Group 183001">
                    <path data-name="Path 296513" d="M27.206 279.273a.359.359 0 0 0-.38.38v4.936a.359.359 0 0 1-.38.38h-13.67a.359.359 0 0 1-.38-.38v-4.936a.38.38 0 1 0-.759 0v4.936a1.119 1.119 0 0 0 1.139 1.139h13.67a1.119 1.119 0 0 0 1.139-1.139v-4.936a.359.359 0 0 0-.379-.38z" transform="translate(-2.611 -261.871)" style="fill:#393939"/>
                </g>
            </g>
            <g data-name="Group 183004">
                <g data-name="Group 183003">
                    <path data-name="Path 296514" d="M15.569 116.364H1.139A1.119 1.119 0 0 0 0 117.5v2.43a1.14 1.14 0 0 0 .873 1.1l5.962 1.329v1.215a.359.359 0 0 0 .38.38h2.278a.359.359 0 0 0 .38-.38v-1.215l5.962-1.329a1.14 1.14 0 0 0 .873-1.1v-2.43a1.119 1.119 0 0 0-1.139-1.136zM9.113 123.2H7.594v-1.52h1.519zm6.835-3.266a.37.37 0 0 1-.3.38L9.873 121.6v-.3a.359.359 0 0 0-.38-.38H7.215a.359.359 0 0 0-.38.38v.3l-5.772-1.291a.37.37 0 0 1-.3-.38V117.5a.359.359 0 0 1 .38-.38h14.426a.359.359 0 0 1 .38.38z" transform="translate(8.646 -104.278)" style="fill:#393939"/>
                </g>
            </g>
            <g data-name="Group 183006">
                <g data-name="Group 183005">
                    <path data-name="Path 296515" d="M167.845 34.909h-3.8a1.119 1.119 0 0 0-1.139 1.139v.38a.38.38 0 1 0 .759 0v-.38a.359.359 0 0 1 .38-.38h3.8a.359.359 0 0 1 .38.38v.38a.38.38 0 1 0 .759 0v-.38a1.119 1.119 0 0 0-1.139-1.139z" transform="translate(-148.947 -25.481)" style="fill:#393939"/>
                </g>
            </g>
        </g>
    </g>
</svg>
