<svg xmlns="http://www.w3.org/2000/svg" width="36" height="36" viewBox="0 0 36 36">
  <g id="Social_Terms_Conditions" data-name="Social Terms &amp; Conditions" transform="translate(-20 -1031)">
    <g id="Ellipse_239" data-name="Ellipse 239" transform="translate(20 1031)" fill="#fff" stroke="#d8e1e8" stroke-width="1">
      <circle cx="18" cy="18" r="18" stroke="none"/>
      <circle cx="18" cy="18" r="17.5" fill="none"/>
    </g>
    <g id="Social_Terms_Conditions-2" data-name="Social Terms &amp; Conditions" transform="translate(28 1039)">
      <path id="Rectangle_6053" data-name="Rectangle 6053" d="M0,0H20V20H0Z" fill="#dcdcdc" opacity="0"/>
      <g id="Group_9878" data-name="Group 9878" transform="translate(-73.475 -1384.469)">
        <g id="Union_1" data-name="Union 1" transform="translate(973.525 1160.531)" fill="#3c3c3c">
          <path d="M -891.1337280273438 240.4192199707031 L -894.9933471679688 240.4192199707031 C -896.3617553710938 240.4192199707031 -897.4750366210938 239.3567962646484 -897.4750366210938 238.0509033203125 L -897.4750366210938 227.88720703125 C -897.4750366210938 226.5818176269531 -896.3617553710938 225.5198059082031 -894.9933471679688 225.5198059082031 L -887.059814453125 225.5198059082031 C -885.69091796875 225.5198059082031 -884.5772094726562 226.5818176269531 -884.5772094726562 227.88720703125 L -884.5772094726562 231.4642028808594 L -885.7435302734375 231.4642028808594 L -885.7435302734375 227.88720703125 C -885.7435302734375 227.1931610107422 -886.333984375 226.6285095214844 -887.059814453125 226.6285095214844 L -894.9933471679688 226.6285095214844 C -895.7191772460938 226.6285095214844 -896.3096313476562 227.1931610107422 -896.3096313476562 227.88720703125 L -896.3096313476562 238.0509033203125 C -896.3096313476562 238.7454528808594 -895.7191772460938 239.3105163574219 -894.9933471679688 239.3105163574219 L -891.1337280273438 239.3105163574219 L -891.1337280273438 240.4192199707031 Z M -888.6285400390625 232.6809997558594 L -893.7593994140625 232.6809997558594 C -894.0628662109375 232.6809997558594 -894.3097534179688 232.4341430664062 -894.3097534179688 232.1307067871094 C -894.3097534179688 231.8277740478516 -894.0628662109375 231.5813140869141 -893.7593994140625 231.5813140869141 L -888.6285400390625 231.5813140869141 C -888.3255615234375 231.5813140869141 -888.0791015625 231.8277740478516 -888.0791015625 232.1307067871094 C -888.0791015625 232.4341430664062 -888.3255615234375 232.6809997558594 -888.6285400390625 232.6809997558594 Z M -888.6285400390625 230.0881042480469 L -893.7593994140625 230.0881042480469 C -894.0628662109375 230.0881042480469 -894.3097534179688 229.8416442871094 -894.3097534179688 229.5387115478516 C -894.3097534179688 229.2352752685547 -894.0628662109375 228.9884033203125 -893.7593994140625 228.9884033203125 L -888.6285400390625 228.9884033203125 C -888.3255615234375 228.9884033203125 -888.0791015625 229.2352752685547 -888.0791015625 229.5387115478516 C -888.0791015625 229.8416442871094 -888.3255615234375 230.0881042480469 -888.6285400390625 230.0881042480469 Z" stroke="none"/>
          <path d="M -891.1837158203125 240.3692169189453 L -891.1837158203125 239.3605194091797 L -894.9933471679688 239.3605194091797 C -895.7467041015625 239.3605194091797 -896.359619140625 238.7730255126953 -896.359619140625 238.0509033203125 L -896.359619140625 227.88720703125 C -896.359619140625 227.1655883789062 -895.7467041015625 226.5785064697266 -894.9933471679688 226.5785064697266 L -887.059814453125 226.5785064697266 C -886.3064575195312 226.5785064697266 -885.6935424804688 227.1655883789062 -885.6935424804688 227.88720703125 L -885.6935424804688 231.4141998291016 L -884.627197265625 231.4141998291016 L -884.627197265625 227.88720703125 C -884.627197265625 226.6093902587891 -885.718505859375 225.5698089599609 -887.059814453125 225.5698089599609 L -894.9933471679688 225.5698089599609 C -896.3341674804688 225.5698089599609 -897.425048828125 226.6093902587891 -897.425048828125 227.88720703125 L -897.425048828125 238.0509033203125 C -897.425048828125 239.3292236328125 -896.3341674804688 240.3692169189453 -894.9933471679688 240.3692169189453 L -891.1837158203125 240.3692169189453 M -888.6285400390625 232.6309967041016 C -888.3531494140625 232.6309967041016 -888.1290893554688 232.4065704345703 -888.1290893554688 232.1307067871094 C -888.1290893554688 231.8553466796875 -888.3531494140625 231.6313171386719 -888.6285400390625 231.6313171386719 L -893.7593994140625 231.6313171386719 C -894.0352783203125 231.6313171386719 -894.259765625 231.8553466796875 -894.259765625 232.1307067871094 C -894.259765625 232.4065704345703 -894.0352783203125 232.6309967041016 -893.7593994140625 232.6309967041016 L -888.6285400390625 232.6309967041016 M -888.6285400390625 230.0381011962891 C -888.3531494140625 230.0381011962891 -888.1290893554688 229.8140716552734 -888.1290893554688 229.5387115478516 C -888.1290893554688 229.2628479003906 -888.3531494140625 229.0384063720703 -888.6285400390625 229.0384063720703 L -893.7593994140625 229.0384063720703 C -894.0352783203125 229.0384063720703 -894.259765625 229.2628479003906 -894.259765625 229.5387115478516 C -894.259765625 229.8140716552734 -894.0352783203125 230.0381011962891 -893.7593994140625 230.0381011962891 L -888.6285400390625 230.0381011962891 M -891.083740234375 240.4692077636719 L -894.9933471679688 240.4692077636719 C -896.3892211914062 240.4692077636719 -897.5250244140625 239.3847045898438 -897.5250244140625 238.0509033203125 L -897.5250244140625 227.88720703125 C -897.5250244140625 226.5543060302734 -896.3892211914062 225.4698028564453 -894.9933471679688 225.4698028564453 L -887.059814453125 225.4698028564453 C -885.6630249023438 225.4698028564453 -884.5272216796875 226.5543060302734 -884.5272216796875 227.88720703125 L -884.5272216796875 231.5142059326172 L -885.7935180664062 231.5142059326172 L -885.7935180664062 227.88720703125 C -885.7935180664062 227.2203063964844 -886.3614501953125 226.6785125732422 -887.059814453125 226.6785125732422 L -894.9933471679688 226.6785125732422 C -895.6907958984375 226.6785125732422 -896.2596435546875 227.2203063964844 -896.2596435546875 227.88720703125 L -896.2596435546875 238.0509033203125 C -896.2596435546875 238.7178039550781 -895.6907958984375 239.2605133056641 -894.9933471679688 239.2605133056641 L -891.083740234375 239.2605133056641 L -891.083740234375 240.4692077636719 Z M -888.6285400390625 232.7310028076172 L -893.7593994140625 232.7310028076172 C -894.0906372070312 232.7310028076172 -894.3597412109375 232.4618988037109 -894.3597412109375 232.1307067871094 C -894.3597412109375 231.7994995117188 -894.0906372070312 231.5313110351562 -893.7593994140625 231.5313110351562 L -888.6285400390625 231.5313110351562 C -888.2973022460938 231.5313110351562 -888.0291137695312 231.7994995117188 -888.0291137695312 232.1307067871094 C -888.0291137695312 232.4618988037109 -888.2973022460938 232.7310028076172 -888.6285400390625 232.7310028076172 Z M -888.6285400390625 230.1381072998047 L -893.7593994140625 230.1381072998047 C -894.0906372070312 230.1381072998047 -894.3597412109375 229.8699035644531 -894.3597412109375 229.5387115478516 C -894.3597412109375 229.2075042724609 -894.0906372070312 228.9384002685547 -893.7593994140625 228.9384002685547 L -888.6285400390625 228.9384002685547 C -888.2973022460938 228.9384002685547 -888.0291137695312 229.2075042724609 -888.0291137695312 229.5387115478516 C -888.0291137695312 229.8699035644531 -888.2973022460938 230.1381072998047 -888.6285400390625 230.1381072998047 Z" stroke="none" fill="#fff"/>
        </g>
        <path id="Path_4170" data-name="Path 4170" d="M18168.816,21468.7a.483.483,0,0,1-.051-.07,1.25,1.25,0,0,1-.441.086,1.237,1.237,0,1,1,.988-.518s.008,0,.008.006a3.065,3.065,0,0,0,3.852.395.363.363,0,0,1,.492.107.351.351,0,0,1-.105.486,3.636,3.636,0,0,1-2.023.641A4.2,4.2,0,0,1,18168.816,21468.7Zm-1-1.2a.508.508,0,1,0,1.016,0c0-.283-.227.51-.5.51S18167.813,21467.215,18167.813,21467.5Zm5.961-.221a1.224,1.224,0,0,1,1.023-1.2v-.035a3.017,3.017,0,0,0-1.2-2.822.35.35,0,0,1-.094-.49.358.358,0,0,1,.492-.1,3.722,3.722,0,0,1,1.5,3.514.056.056,0,0,1-.008.023,1.206,1.206,0,0,1,.719,1.105,1.217,1.217,0,0,1-2.434,0Zm.707,0a.515.515,0,0,0,.508.512c.285,0-.508-.014-.508-.291s.793-.73.508-.73A.511.511,0,0,0,18174.48,21467.277Zm-6.566-1.643a.357.357,0,0,1-.312-.393,3.733,3.733,0,0,1,2.758-3.229.425.425,0,0,1,.082-.01,1.213,1.213,0,1,1,.082.7,3.043,3.043,0,0,0-2.223,2.617.35.35,0,0,1-.348.316Zm3.211-3.418a.51.51,0,1,0,1.02,0c0-.281-.324.514-.609.514S18171.125,21461.936,18171.125,21462.217Z" transform="translate(-18083.262 -20067.09)" fill="#3c3c3c" stroke="#3c3c3c" stroke-width="0.3"/>
      </g>
    </g>
  </g>
</svg>
