<svg xmlns="http://www.w3.org/2000/svg" width="20" height="12" viewBox="0 0 20 12">
    <path d="m10.786 6.5 3.147-3.7-1.12-1.048c-.279-.261-.561-.52-.838-.783a.534.534 0 0 1-.157-.619.538.538 0 0 1 .533-.35h6.559a1 1 0 0 1 1.054 1.053c.012.714.016 1.429.02 2.143.008 1.529.011 3.058.022 4.587a.552.552 0 0 1-.3.583c-.216.1-.413.041-.637-.187q-.985-1-1.967-2a2.174 2.174 0 0 1-.149-.192c-.715.621-1.4 1.213-2.082 1.807l-3.2 2.787a1.386 1.386 0 0 1-1.984-.167Q8.218 8.731 6.756 7.041L6.63 6.9c-.166.146-.331.288-.492.432L1.09 11.849a.451.451 0 0 1-.69-.013c-.455-.443-.547-.552-.1-1.157 1.755-2.393 3.491-4.8 5.234-7.2a1.375 1.375 0 0 1 2-.264 3.269 3.269 0 0 1 .262.247l2.819 2.864c.054.055.109.107.179.174z" transform="translate(-.007 -.003)" style="fill:#fd7a24"/>
</svg>
